2026-06-21 09:14:33 [DEBUG] root: Parsing REDIS_CONNECTION_STRING: redis://default:HyTxCIiOwQecaBKAUEvRNjQD5EYFZQsp@redis-16117.c16.us-east-1-2.ec2.cloud.redislabs.com:16117
2026-06-21 09:14:33 [DEBUG] root: Parsed Redis URL: ParseResult(scheme='redis', netloc='default:HyTxCIiOwQecaBKAUEvRNjQD5EYFZQsp@redis-16117.c16.us-east-1-2.ec2.cloud.redislabs.com:16117', path='', params='', query='', fragment='')
2026-06-21 09:14:33 [DEBUG] root: Parsed Redis host: redis-16117.c16.us-east-1-2.ec2.cloud.redislabs.com
2026-06-21 09:14:33 [DEBUG] root: Parsed Redis settings: host=redis-16117.c16.us-east-1-2.ec2.cloud.redislabs.com, port=16117, user=default, db=0
2026-06-21 09:14:33 [DEBUG] matplotlib: matplotlib data path: /home/robbiec/Git/pfun-cma-model/.venv/lib/python3.12/site-packages/matplotlib/mpl-data
2026-06-21 09:14:33 [DEBUG] matplotlib: CONFIGDIR=/home/robbiec/.config/matplotlib
2026-06-21 09:14:33 [DEBUG] matplotlib: interactive is False
2026-06-21 09:14:33 [DEBUG] matplotlib: platform is linux
2026-06-21 09:14:33 [DEBUG] matplotlib: CACHEDIR=/home/robbiec/.cache/matplotlib
2026-06-21 09:14:33 [DEBUG] matplotlib.font_manager: Using fontManager instance from /home/robbiec/.cache/matplotlib/fontlist-v390.json
2026-06-21 09:14:33 [DEBUG] root: pfun-cma-model version: 0.4.207
<?xml version="1.0" encoding="utf-8"?>
<svg xmlns="http://www.w3.org/2000/svg" viewBox="0 0 840 300" width="840" height="300">
  <rect width="840" height="300" fill="#0d1117" rx="8"/>
  <style>
    .axis { stroke: #484f58; stroke-width: 1; fill: none; }
    .axis-label { fill: #484f58; font: 10px monospace; }
    .sig-c { fill: #ff6b6b; }
    .sig-m { fill: #4ecdc4; }
    .sig-a { fill: #ffe66d; }
    .sig-G { fill: #1a535c; }
    .title { fill: #58a6ff; font: bold 14px monospace; }
    .subtitle { fill: #8b949e; font: 12px monospace; }
    .grid { stroke: #21262d; stroke-width: 0.5; }
  </style>
  <text x="20" y="24" class="title">PFun CMA Model - 3D Waveform Visualization</text>
  <text x="480" y="24" class="subtitle">1024 points | Cortisol ' + chars['c'] + ' Melatonin ' + chars['m'] + ' Adiponectin ' + chars['a'] + ' Glucose ' + chars['G'] + '</text>
  <g transform="translate(30, 40)">
    <line x1="0" y1="220" x2="790" y2="220" class="axis"/>
    <line x1="0" y1="0" x2="0" y2="220" class="axis"/>

    <line x1="0" y1="0" x2="0" y2="220" class="grid"/>
    <text x="-8" y="236" class="axis-label">0h</text>
    <line x1="197" y1="0" x2="197" y2="220" class="grid"/>
    <text x="189" y="236" class="axis-label">6h</text>
    <line x1="395" y1="0" x2="395" y2="220" class="grid"/>
    <text x="387" y="236" class="axis-label">12h</text>
    <line x1="592" y1="0" x2="592" y2="220" class="grid"/>
    <text x="584" y="236" class="axis-label">18h</text>
    <line x1="790" y1="0" x2="790" y2="220" class="grid"/>
    <text x="782" y="236" class="axis-label">24h</text>

    <polyline points="0,12 0,13 0,13 1,14 1,14 1,14 2,15 2,15 3,15 3,15 3,16 4,16 4,16 5,16 5,16 5,16 6,16 6,16 6,17 7,17 7,17 8,17 8,17 8,17 9,17 9,17 10,17 10,17 10,17 11,17 11,17 11,16 12,16 12,16 13,16 13,16 13,15 14,14 14,13 15,12 15,10 15,7 16,4 16,-1 16,-5 17,-11 17,-16 18,-22 18,-27 18,-31 19,-35 19,-38 20,-40 20,-43 20,-44 21,-45 21,-46 22,-47 22,-47 22,-47 23,-48 23,-47 23,-47 24,-47 24,-47 25,-47 25,-46 25,-46 26,-45 26,-45 27,-45 27,-44 27,-44 28,-44 28,-43 28,-43 29,-43 29,-42 30,-42 30,-41 30,-41 31,-41 31,-40 32,-40 32,-40 32,-39 33,-39 33,-39 33,-38 34,-38 34,-37 35,-37 35,-37 35,-36 36,-36 36,-36 37,-35 37,-35 37,-35 38,-34 38,-34 38,-33 39,-33 39,-33 40,-32 40,-32 40,-32 41,-31 41,-31 42,-31 42,-30 42,-30 43,-30 43,-29 44,-29 44,-29 44,-28 45,-28 45,-27 45,-27 46,-27 46,-26 47,-26 47,-26 47,-25 48,-25 48,-25 49,-24 49,-24 49,-24 50,-23 50,-23 50,-23 51,-22 51,-22 52,-22 52,-21 52,-21 53,-21 53,-21 54,-20 54,-20 54,-19 55,-19 55,-19 55,-18 56,-18 56,-17 57,-16 57,-15 57,-14 58,-13 58,-12 59,-11 59,-10 59,-8 60,-7 60,-6 61,-4 61,-3 61,-2 62,0 62,1 62,2 63,3 63,3 64,4 64,5 64,5 65,6 65,6 66,7 66,7 66,8 67,8 67,8 67,9 68,9 68,9 69,10 69,10 69,10 70,11 70,11 71,11 71,12 71,12 72,12 72,13 72,13 73,13 73,14 74,14 74,14 74,14 75,15 75,15 76,15 76,15 76,16 77,16 77,16 77,16 78,16 78,17" stroke="#ff6b6b" stroke-width="1.5" fill="none" opacity="0.7"/>
    <polyline points="0,-38 0,-39 0,-40 1,-40 1,-41 1,-42 2,-42 2,-43 3,-43 3,-44 3,-44 4,-45 4,-45 5,-45 5,-46 5,-46 6,-47 6,-47 6,-47 7,-47 7,-47 8,-48 8,-48 8,-48 9,-48 9,-48 10,-48 10,-48 10,-48 11,-47 11,-47 11,-47 12,-46 12,-45 13,-45 13,-44 13,-42 14,-41 14,-39 15,-37 15,-35 15,-32 16,-30 16,-26 16,-23 17,-20 17,-16 18,-13 18,-9 18,-6 19,-2 19,1 20,3 20,6 20,8 21,10 21,12 22,13 22,14 22,15 23,16 23,16 23,17 24,17 24,17 25,17 25,18 25,18 26,18 26,18 27,18 27,18 27,18 28,18 28,18 28,18 29,18 29,18 30,18 30,18 30,18 31,18 31,18 32,18 32,18 32,18 33,18 33,18 33,18 34,18 34,18 35,18 35,18 35,18 36,18 36,18 37,18 37,18 37,18 38,18 38,18 38,18 39,18 39,18 40,18 40,18 40,18 41,18 41,18 42,18 42,18 42,18 43,18 43,18 44,18 44,18 44,18 45,18 45,18 45,18 46,18 46,18 47,18 47,18 47,18 48,18 48,18 49,18 49,18 49,18 50,18 50,18 50,18 51,18 51,18 52,18 52,18 52,18 53,18 53,18 54,18 54,18 54,18 55,18 55,18 55,18 56,18 56,17 57,17 57,17 57,17 58,16 58,16 59,15 59,15 59,14 60,13 60,12 61,11 61,10 61,8 62,7 62,6 62,4 63,3 63,1 64,0 64,-1 64,-3 65,-4 65,-5 66,-6 66,-7 66,-9 67,-10 67,-11 67,-12 68,-13 68,-14 69,-15 69,-16 69,-17 70,-18 70,-19 71,-20 71,-21 71,-22 72,-23 72,-24 72,-25 73,-26 73,-27 74,-28 74,-29 74,-30 75,-31 75,-31 76,-32 76,-33 76,-34 77,-35 77,-36 77,-36 78,-37 78,-38" stroke="#4ecdc4" stroke-width="1.5" fill="none" opacity="0.7"/>
    <polyline points="0,1 0,1 0,1 1,1 1,1 1,1 2,1 2,1 3,1 3,1 3,1 4,1 4,1 5,1 5,1 5,1 6,1 6,1 6,1 7,0 7,0 8,0 8,0 8,0 9,0 9,0 10,0 10,-1 10,-1 11,-1 11,-1 11,-1 12,-2 12,-2 13,-2 13,-2 13,-3 14,-3 14,-3 15,-3 15,-4 15,-4 16,-4 16,-5 16,-5 17,-5 17,-6 18,-6 18,-6 18,-7 19,-7 19,-8 20,-8 20,-9 20,-9 21,-10 21,-10 22,-11 22,-11 22,-11 23,-12 23,-12 23,-13 24,-13 24,-14 25,-14 25,-15 25,-16 26,-16 26,-17 27,-17 27,-18 27,-18 28,-19 28,-19 28,-20 29,-20 29,-21 30,-21 30,-22 30,-22 31,-23 31,-23 32,-24 32,-24 32,-25 33,-25 33,-26 33,-26 34,-26 34,-27 35,-27 35,-28 35,-28 36,-28 36,-29 37,-29 37,-29 37,-30 38,-30 38,-30 38,-30 39,-30 39,-31 40,-31 40,-31 40,-31 41,-31 41,-31 42,-31 42,-31 42,-31 43,-31 43,-31 44,-31 44,-30 44,-30 45,-30 45,-30 45,-29 46,-29 46,-29 47,-28 47,-28 47,-27 48,-27 48,-26 49,-26 49,-25 49,-25 50,-24 50,-23 50,-23 51,-22 51,-21 52,-20 52,-20 52,-19 53,-18 53,-17 54,-16 54,-16 54,-15 55,-14 55,-13 55,-12 56,-12 56,-11 57,-10 57,-9 57,-8 58,-8 58,-7 59,-6 59,-6 59,-5 60,-4 60,-4 61,-3 61,-3 61,-2 62,-2 62,-1 62,-1 63,-1 63,0 64,0 64,0 64,0 65,0 65,1 66,1 66,1 66,1 67,1 67,1 67,1 68,1 68,1 69,1 69,1 69,1 70,1 70,1 71,1 71,1 71,1 72,1 72,1 72,1 73,1 73,1 74,1 74,1 74,1 75,1 75,1 76,1 76,1 76,1 77,1 77,1 77,1 78,1 78,1" stroke="#ffe66d" stroke-width="1.5" fill="none" opacity="0.7"/>
    <polyline points="0,24 0,24 0,24 1,24 1,24 1,24 2,24 2,24 3,24 3,24 3,24 4,24 4,24 5,24 5,24 5,24 6,24 6,24 6,24 7,24 7,24 8,24 8,24 8,24 9,24 9,24 10,24 10,24 10,24 11,24 11,24 11,24 12,24 12,24 13,24 13,24 13,24 14,24 14,24 15,24 15,24 15,24 16,24 16,24 16,24 17,24 17,24 18,24 18,24 18,24 19,24 19,24 20,24 20,24 20,24 21,24 21,24 22,24 22,24 22,24 23,24 23,24 23,24 24,24 24,24 25,24 25,24 25,24 26,24 26,24 27,24 27,24 27,24 28,24 28,24 28,24 29,24 29,24 30,24 30,24 30,24 31,24 31,24 32,24 32,24 32,24 33,24 33,24 33,24 34,24 34,24 35,24 35,24 35,24 36,24 36,24 37,24 37,24 37,24 38,24 38,24 38,24 39,24 39,24 40,24 40,24 40,24 41,24 41,24 42,24 42,24 42,24 43,24 43,24 44,24 44,24 44,24 45,24 45,24 45,24 46,24 46,24 47,24 47,24 47,24 48,24 48,24 49,24 49,24 49,24 50,24 50,24 50,24 51,24 51,24 52,24 52,24 52,24 53,24 53,24 54,24 54,24 54,24 55,24 55,24 55,24 56,24 56,24 57,24 57,24 57,24 58,24 58,24 59,24 59,24 59,24 60,24 60,24 61,24 61,24 61,24 62,24 62,24 62,24 63,24 63,24 64,24 64,24 64,24 65,24 65,24 66,24 66,24 66,24 67,24 67,24 67,24 68,24 68,24 69,24 69,24 69,24 70,24 70,24 71,24 71,24 71,24 72,24 72,24 72,24 73,24 73,24 74,24 74,24 74,24 75,24 75,24 76,24 76,24 76,24 77,24 77,24 77,24 78,24 78,24" stroke="#1a535c" stroke-width="1.5" fill="none" opacity="0.7"/>
    <circle cx="0" cy="12" r="1.5" class="sig-c"/>
    <circle cx="1" cy="14" r="1.5" class="sig-c"/>
    <circle cx="3" cy="15" r="1.5" class="sig-c"/>
    <circle cx="4" cy="16" r="1.5" class="sig-c"/>
    <circle cx="6" cy="16" r="1.5" class="sig-c"/>
    <circle cx="7" cy="17" r="1.5" class="sig-c"/>
    <circle cx="9" cy="17" r="1.5" class="sig-c"/>
    <circle cx="10" cy="17" r="1.5" class="sig-c"/>
    <circle cx="12" cy="16" r="1.5" class="sig-c"/>
    <circle cx="13" cy="15" r="1.5" class="sig-c"/>
    <circle cx="15" cy="10" r="1.5" class="sig-c"/>
    <circle cx="16" cy="-5" r="1.5" class="sig-c"/>
    <circle cx="18" cy="-27" r="1.5" class="sig-c"/>
    <circle cx="20" cy="-40" r="1.5" class="sig-c"/>
    <circle cx="21" cy="-46" r="1.5" class="sig-c"/>
    <circle cx="23" cy="-48" r="1.5" class="sig-c"/>
    <circle cx="24" cy="-47" r="1.5" class="sig-c"/>
    <circle cx="26" cy="-45" r="1.5" class="sig-c"/>
    <circle cx="27" cy="-44" r="1.5" class="sig-c"/>
    <circle cx="29" cy="-43" r="1.5" class="sig-c"/>
    <circle cx="30" cy="-41" r="1.5" class="sig-c"/>
    <circle cx="32" cy="-40" r="1.5" class="sig-c"/>
    <circle cx="33" cy="-38" r="1.5" class="sig-c"/>
    <circle cx="35" cy="-37" r="1.5" class="sig-c"/>
    <circle cx="37" cy="-35" r="1.5" class="sig-c"/>
    <circle cx="38" cy="-34" r="1.5" class="sig-c"/>
    <circle cx="40" cy="-32" r="1.5" class="sig-c"/>
    <circle cx="41" cy="-31" r="1.5" class="sig-c"/>
    <circle cx="43" cy="-30" r="1.5" class="sig-c"/>
    <circle cx="44" cy="-28" r="1.5" class="sig-c"/>
    <circle cx="46" cy="-27" r="1.5" class="sig-c"/>
    <circle cx="47" cy="-25" r="1.5" class="sig-c"/>
    <circle cx="49" cy="-24" r="1.5" class="sig-c"/>
    <circle cx="50" cy="-23" r="1.5" class="sig-c"/>
    <circle cx="52" cy="-21" r="1.5" class="sig-c"/>
    <circle cx="54" cy="-20" r="1.5" class="sig-c"/>
    <circle cx="55" cy="-19" r="1.5" class="sig-c"/>
    <circle cx="57" cy="-16" r="1.5" class="sig-c"/>
    <circle cx="58" cy="-12" r="1.5" class="sig-c"/>
    <circle cx="60" cy="-7" r="1.5" class="sig-c"/>
    <circle cx="61" cy="-2" r="1.5" class="sig-c"/>
    <circle cx="63" cy="3" r="1.5" class="sig-c"/>
    <circle cx="64" cy="5" r="1.5" class="sig-c"/>
    <circle cx="66" cy="7" r="1.5" class="sig-c"/>
    <circle cx="67" cy="9" r="1.5" class="sig-c"/>
    <circle cx="69" cy="10" r="1.5" class="sig-c"/>
    <circle cx="71" cy="11" r="1.5" class="sig-c"/>
    <circle cx="72" cy="13" r="1.5" class="sig-c"/>
    <circle cx="74" cy="14" r="1.5" class="sig-c"/>
    <circle cx="75" cy="15" r="1.5" class="sig-c"/>
    <circle cx="0" cy="-38" r="1.5" class="sig-m"/>
    <circle cx="1" cy="-41" r="1.5" class="sig-m"/>
    <circle cx="3" cy="-43" r="1.5" class="sig-m"/>
    <circle cx="4" cy="-45" r="1.5" class="sig-m"/>
    <circle cx="6" cy="-47" r="1.5" class="sig-m"/>
    <circle cx="7" cy="-47" r="1.5" class="sig-m"/>
    <circle cx="9" cy="-48" r="1.5" class="sig-m"/>
    <circle cx="10" cy="-48" r="1.5" class="sig-m"/>
    <circle cx="12" cy="-46" r="1.5" class="sig-m"/>
    <circle cx="13" cy="-42" r="1.5" class="sig-m"/>
    <circle cx="15" cy="-35" r="1.5" class="sig-m"/>
    <circle cx="16" cy="-23" r="1.5" class="sig-m"/>
    <circle cx="18" cy="-9" r="1.5" class="sig-m"/>
    <circle cx="20" cy="3" r="1.5" class="sig-m"/>
    <circle cx="21" cy="12" r="1.5" class="sig-m"/>
    <circle cx="23" cy="16" r="1.5" class="sig-m"/>
    <circle cx="24" cy="17" r="1.5" class="sig-m"/>
    <circle cx="26" cy="18" r="1.5" class="sig-m"/>
    <circle cx="27" cy="18" r="1.5" class="sig-m"/>
    <circle cx="29" cy="18" r="1.5" class="sig-m"/>
    <circle cx="30" cy="18" r="1.5" class="sig-m"/>
    <circle cx="32" cy="18" r="1.5" class="sig-m"/>
    <circle cx="33" cy="18" r="1.5" class="sig-m"/>
    <circle cx="35" cy="18" r="1.5" class="sig-m"/>
    <circle cx="37" cy="18" r="1.5" class="sig-m"/>
    <circle cx="38" cy="18" r="1.5" class="sig-m"/>
    <circle cx="40" cy="18" r="1.5" class="sig-m"/>
    <circle cx="41" cy="18" r="1.5" class="sig-m"/>
    <circle cx="43" cy="18" r="1.5" class="sig-m"/>
    <circle cx="44" cy="18" r="1.5" class="sig-m"/>
    <circle cx="46" cy="18" r="1.5" class="sig-m"/>
    <circle cx="47" cy="18" r="1.5" class="sig-m"/>
    <circle cx="49" cy="18" r="1.5" class="sig-m"/>
    <circle cx="50" cy="18" r="1.5" class="sig-m"/>
    <circle cx="52" cy="18" r="1.5" class="sig-m"/>
    <circle cx="54" cy="18" r="1.5" class="sig-m"/>
    <circle cx="55" cy="18" r="1.5" class="sig-m"/>
    <circle cx="57" cy="17" r="1.5" class="sig-m"/>
    <circle cx="58" cy="16" r="1.5" class="sig-m"/>
    <circle cx="60" cy="13" r="1.5" class="sig-m"/>
    <circle cx="61" cy="8" r="1.5" class="sig-m"/>
    <circle cx="63" cy="3" r="1.5" class="sig-m"/>
    <circle cx="64" cy="-3" r="1.5" class="sig-m"/>
    <circle cx="66" cy="-7" r="1.5" class="sig-m"/>
    <circle cx="67" cy="-12" r="1.5" class="sig-m"/>
    <circle cx="69" cy="-16" r="1.5" class="sig-m"/>
    <circle cx="71" cy="-20" r="1.5" class="sig-m"/>
    <circle cx="72" cy="-24" r="1.5" class="sig-m"/>
    <circle cx="74" cy="-28" r="1.5" class="sig-m"/>
    <circle cx="75" cy="-31" r="1.5" class="sig-m"/>
    <circle cx="0" cy="1" r="1.5" class="sig-a"/>
    <circle cx="1" cy="1" r="1.5" class="sig-a"/>
    <circle cx="3" cy="1" r="1.5" class="sig-a"/>
    <circle cx="4" cy="1" r="1.5" class="sig-a"/>
    <circle cx="6" cy="1" r="1.5" class="sig-a"/>
    <circle cx="7" cy="0" r="1.5" class="sig-a"/>
    <circle cx="9" cy="0" r="1.5" class="sig-a"/>
    <circle cx="10" cy="-1" r="1.5" class="sig-a"/>
    <circle cx="12" cy="-2" r="1.5" class="sig-a"/>
    <circle cx="13" cy="-3" r="1.5" class="sig-a"/>
    <circle cx="15" cy="-4" r="1.5" class="sig-a"/>
    <circle cx="16" cy="-5" r="1.5" class="sig-a"/>
    <circle cx="18" cy="-6" r="1.5" class="sig-a"/>
    <circle cx="20" cy="-8" r="1.5" class="sig-a"/>
    <circle cx="21" cy="-10" r="1.5" class="sig-a"/>
    <circle cx="23" cy="-12" r="1.5" class="sig-a"/>
    <circle cx="24" cy="-14" r="1.5" class="sig-a"/>
    <circle cx="26" cy="-16" r="1.5" class="sig-a"/>
    <circle cx="27" cy="-18" r="1.5" class="sig-a"/>
    <circle cx="29" cy="-20" r="1.5" class="sig-a"/>
    <circle cx="30" cy="-22" r="1.5" class="sig-a"/>
    <circle cx="32" cy="-24" r="1.5" class="sig-a"/>
    <circle cx="33" cy="-26" r="1.5" class="sig-a"/>
    <circle cx="35" cy="-28" r="1.5" class="sig-a"/>
    <circle cx="37" cy="-29" r="1.5" class="sig-a"/>
    <circle cx="38" cy="-30" r="1.5" class="sig-a"/>
    <circle cx="40" cy="-31" r="1.5" class="sig-a"/>
    <circle cx="41" cy="-31" r="1.5" class="sig-a"/>
    <circle cx="43" cy="-31" r="1.5" class="sig-a"/>
    <circle cx="44" cy="-30" r="1.5" class="sig-a"/>
    <circle cx="46" cy="-29" r="1.5" class="sig-a"/>
    <circle cx="47" cy="-27" r="1.5" class="sig-a"/>
    <circle cx="49" cy="-25" r="1.5" class="sig-a"/>
    <circle cx="50" cy="-23" r="1.5" class="sig-a"/>
    <circle cx="52" cy="-20" r="1.5" class="sig-a"/>
    <circle cx="54" cy="-16" r="1.5" class="sig-a"/>
    <circle cx="55" cy="-13" r="1.5" class="sig-a"/>
    <circle cx="57" cy="-10" r="1.5" class="sig-a"/>
    <circle cx="58" cy="-7" r="1.5" class="sig-a"/>
    <circle cx="60" cy="-4" r="1.5" class="sig-a"/>
    <circle cx="61" cy="-2" r="1.5" class="sig-a"/>
    <circle cx="63" cy="-1" r="1.5" class="sig-a"/>
    <circle cx="64" cy="0" r="1.5" class="sig-a"/>
    <circle cx="66" cy="1" r="1.5" class="sig-a"/>
    <circle cx="67" cy="1" r="1.5" class="sig-a"/>
    <circle cx="69" cy="1" r="1.5" class="sig-a"/>
    <circle cx="71" cy="1" r="1.5" class="sig-a"/>
    <circle cx="72" cy="1" r="1.5" class="sig-a"/>
    <circle cx="74" cy="1" r="1.5" class="sig-a"/>
    <circle cx="75" cy="1" r="1.5" class="sig-a"/>
    <circle cx="0" cy="24" r="1.5" class="sig-G"/>
    <circle cx="1" cy="24" r="1.5" class="sig-G"/>
    <circle cx="3" cy="24" r="1.5" class="sig-G"/>
    <circle cx="4" cy="24" r="1.5" class="sig-G"/>
    <circle cx="6" cy="24" r="1.5" class="sig-G"/>
    <circle cx="7" cy="24" r="1.5" class="sig-G"/>
    <circle cx="9" cy="24" r="1.5" class="sig-G"/>
    <circle cx="10" cy="24" r="1.5" class="sig-G"/>
    <circle cx="12" cy="24" r="1.5" class="sig-G"/>
    <circle cx="13" cy="24" r="1.5" class="sig-G"/>
    <circle cx="15" cy="24" r="1.5" class="sig-G"/>
    <circle cx="16" cy="24" r="1.5" class="sig-G"/>
    <circle cx="18" cy="24" r="1.5" class="sig-G"/>
    <circle cx="20" cy="24" r="1.5" class="sig-G"/>
    <circle cx="21" cy="24" r="1.5" class="sig-G"/>
    <circle cx="23" cy="24" r="1.5" class="sig-G"/>
    <circle cx="24" cy="24" r="1.5" class="sig-G"/>
    <circle cx="26" cy="24" r="1.5" class="sig-G"/>
    <circle cx="27" cy="24" r="1.5" class="sig-G"/>
    <circle cx="29" cy="24" r="1.5" class="sig-G"/>
    <circle cx="30" cy="24" r="1.5" class="sig-G"/>
    <circle cx="32" cy="24" r="1.5" class="sig-G"/>
    <circle cx="33" cy="24" r="1.5" class="sig-G"/>
    <circle cx="35" cy="24" r="1.5" class="sig-G"/>
    <circle cx="37" cy="24" r="1.5" class="sig-G"/>
    <circle cx="38" cy="24" r="1.5" class="sig-G"/>
    <circle cx="40" cy="24" r="1.5" class="sig-G"/>
    <circle cx="41" cy="24" r="1.5" class="sig-G"/>
    <circle cx="43" cy="24" r="1.5" class="sig-G"/>
    <circle cx="44" cy="24" r="1.5" class="sig-G"/>
    <circle cx="46" cy="24" r="1.5" class="sig-G"/>
    <circle cx="47" cy="24" r="1.5" class="sig-G"/>
    <circle cx="49" cy="24" r="1.5" class="sig-G"/>
    <circle cx="50" cy="24" r="1.5" class="sig-G"/>
    <circle cx="52" cy="24" r="1.5" class="sig-G"/>
    <circle cx="54" cy="24" r="1.5" class="sig-G"/>
    <circle cx="55" cy="24" r="1.5" class="sig-G"/>
    <circle cx="57" cy="24" r="1.5" class="sig-G"/>
    <circle cx="58" cy="24" r="1.5" class="sig-G"/>
    <circle cx="60" cy="24" r="1.5" class="sig-G"/>
    <circle cx="61" cy="24" r="1.5" class="sig-G"/>
    <circle cx="63" cy="24" r="1.5" class="sig-G"/>
    <circle cx="64" cy="24" r="1.5" class="sig-G"/>
    <circle cx="66" cy="24" r="1.5" class="sig-G"/>
    <circle cx="67" cy="24" r="1.5" class="sig-G"/>
    <circle cx="69" cy="24" r="1.5" class="sig-G"/>
    <circle cx="71" cy="24" r="1.5" class="sig-G"/>
    <circle cx="72" cy="24" r="1.5" class="sig-G"/>
    <circle cx="74" cy="24" r="1.5" class="sig-G"/>
    <circle cx="75" cy="24" r="1.5" class="sig-G"/>

    <!-- Legend -->
    <rect x="600" y="-10" width="180" height="90" rx="4" fill="#161b22" stroke="#30363d" stroke-width="0.5"/>

    <circle cx="614" cy="8" r="3" class="sig-c"/>
    <text x="624" y="12" fill="#c9d1d9" font="11px monospace">Cortisol</text>
    <circle cx="614" cy="26" r="3" class="sig-m"/>
    <text x="624" y="30" fill="#c9d1d9" font="11px monospace">Melatonin</text>
    <circle cx="614" cy="44" r="3" class="sig-a"/>
    <text x="624" y="48" fill="#c9d1d9" font="11px monospace">Adiponectin</text>
    <circle cx="614" cy="62" r="3" class="sig-G"/>
    <text x="624" y="66" fill="#c9d1d9" font="11px monospace">Glucose</text>

  </g>
</svg>
